<mxfile host="app.diagrams.net" modified="2024-01-19T21:13:13.326Z" agent="Mozilla/5.0 (Windows NT 10.0; rv:109.0) Gecko/20100101 Firefox/116.0" etag="NbTyg62Vg2nR0Yhcwiwo" version="22.1.21" type="github">
  <diagram name="Page-1" id="-D232TfCvKW0tYnjkdYz">
    <mxGraphModel dx="1964" dy="727" grid="1" gridSize="10" guides="1" tooltips="1" connect="1" arrows="1" fold="1" page="1" pageScale="1" pageWidth="850" pageHeight="1100" math="0" shadow="0">
      <root>
        <mxCell id="0" />
        <mxCell id="1" parent="0" />
        <mxCell id="6bCcGAt8e8jWlPKwJJBg-1" value="Start/Gold" style="rounded=1;whiteSpace=wrap;html=1;" vertex="1" parent="1">
          <mxGeometry x="320" y="340" width="120" height="60" as="geometry" />
        </mxCell>
        <mxCell id="6bCcGAt8e8jWlPKwJJBg-2" value="GOOD" style="rounded=1;whiteSpace=wrap;html=1;" vertex="1" parent="1">
          <mxGeometry x="460" y="240" width="120" height="60" as="geometry" />
        </mxCell>
        <mxCell id="6bCcGAt8e8jWlPKwJJBg-3" value="BAD" style="rounded=1;whiteSpace=wrap;html=1;" vertex="1" parent="1">
          <mxGeometry x="250" y="240" width="120" height="60" as="geometry" />
        </mxCell>
        <mxCell id="6bCcGAt8e8jWlPKwJJBg-4" value="Shop" style="rounded=1;whiteSpace=wrap;html=1;" vertex="1" parent="1">
          <mxGeometry x="100" y="380" width="120" height="60" as="geometry" />
        </mxCell>
        <mxCell id="6bCcGAt8e8jWlPKwJJBg-5" value="PVP" style="rounded=1;whiteSpace=wrap;html=1;" vertex="1" parent="1">
          <mxGeometry x="490" y="340" width="120" height="60" as="geometry" />
        </mxCell>
        <mxCell id="6bCcGAt8e8jWlPKwJJBg-6" value="Gold" style="rounded=1;whiteSpace=wrap;html=1;" vertex="1" parent="1">
          <mxGeometry x="520" y="440" width="120" height="60" as="geometry" />
        </mxCell>
        <mxCell id="6bCcGAt8e8jWlPKwJJBg-7" value="" style="rounded=1;whiteSpace=wrap;html=1;" vertex="1" parent="1">
          <mxGeometry x="320" y="460" width="120" height="60" as="geometry" />
        </mxCell>
        <mxCell id="6bCcGAt8e8jWlPKwJJBg-8" value="GOOD" style="rounded=1;whiteSpace=wrap;html=1;" vertex="1" parent="1">
          <mxGeometry x="720" y="170" width="120" height="60" as="geometry" />
        </mxCell>
        <mxCell id="6bCcGAt8e8jWlPKwJJBg-9" value="BAD" style="rounded=1;whiteSpace=wrap;html=1;" vertex="1" parent="1">
          <mxGeometry x="730" y="290" width="120" height="60" as="geometry" />
        </mxCell>
        <mxCell id="6bCcGAt8e8jWlPKwJJBg-10" value="GOOD" style="rounded=1;whiteSpace=wrap;html=1;" vertex="1" parent="1">
          <mxGeometry x="720" y="450" width="120" height="60" as="geometry" />
        </mxCell>
        <mxCell id="6bCcGAt8e8jWlPKwJJBg-11" value="Shop" style="rounded=1;whiteSpace=wrap;html=1;" vertex="1" parent="1">
          <mxGeometry x="510" y="140" width="120" height="60" as="geometry" />
        </mxCell>
        <mxCell id="6bCcGAt8e8jWlPKwJJBg-12" value="" style="rounded=1;whiteSpace=wrap;html=1;" vertex="1" parent="1">
          <mxGeometry x="300" y="140" width="120" height="60" as="geometry" />
        </mxCell>
        <mxCell id="6bCcGAt8e8jWlPKwJJBg-13" value="GOOD" style="rounded=1;whiteSpace=wrap;html=1;" vertex="1" parent="1">
          <mxGeometry x="100" y="140" width="120" height="60" as="geometry" />
        </mxCell>
        <mxCell id="6bCcGAt8e8jWlPKwJJBg-14" value="Gold" style="rounded=1;whiteSpace=wrap;html=1;" vertex="1" parent="1">
          <mxGeometry x="100" y="240" width="120" height="60" as="geometry" />
        </mxCell>
        <mxCell id="6bCcGAt8e8jWlPKwJJBg-15" value="VS" style="rounded=1;whiteSpace=wrap;html=1;" vertex="1" parent="1">
          <mxGeometry x="100" y="460" width="120" height="60" as="geometry" />
        </mxCell>
        <mxCell id="6bCcGAt8e8jWlPKwJJBg-16" value="Gold" style="rounded=1;whiteSpace=wrap;html=1;" vertex="1" parent="1">
          <mxGeometry x="100" y="560" width="120" height="60" as="geometry" />
        </mxCell>
        <mxCell id="6bCcGAt8e8jWlPKwJJBg-17" value="GOOD" style="rounded=1;whiteSpace=wrap;html=1;" vertex="1" parent="1">
          <mxGeometry x="290" y="560" width="120" height="60" as="geometry" />
        </mxCell>
        <mxCell id="6bCcGAt8e8jWlPKwJJBg-18" value="BAD" style="rounded=1;whiteSpace=wrap;html=1;" vertex="1" parent="1">
          <mxGeometry x="490" y="560" width="120" height="60" as="geometry" />
        </mxCell>
        <mxCell id="6bCcGAt8e8jWlPKwJJBg-19" value="Shop" style="rounded=1;whiteSpace=wrap;html=1;" vertex="1" parent="1">
          <mxGeometry x="720" y="560" width="120" height="60" as="geometry" />
        </mxCell>
        <mxCell id="6bCcGAt8e8jWlPKwJJBg-20" value="Abyss" style="rounded=1;whiteSpace=wrap;html=1;" vertex="1" parent="1">
          <mxGeometry x="365" y="10" width="255" height="100" as="geometry" />
        </mxCell>
        <mxCell id="6bCcGAt8e8jWlPKwJJBg-21" value="DIY-HRT" style="rounded=1;whiteSpace=wrap;html=1;fillColor=#FF9999;" vertex="1" parent="1">
          <mxGeometry x="290" y="650" width="120" height="60" as="geometry" />
        </mxCell>
        <mxCell id="6bCcGAt8e8jWlPKwJJBg-22" value="Shop" style="rounded=1;whiteSpace=wrap;html=1;" vertex="1" parent="1">
          <mxGeometry x="432.5" y="730" width="120" height="60" as="geometry" />
        </mxCell>
        <mxCell id="6bCcGAt8e8jWlPKwJJBg-23" value="BAD" style="rounded=1;whiteSpace=wrap;html=1;" vertex="1" parent="1">
          <mxGeometry x="620" y="650" width="120" height="60" as="geometry" />
        </mxCell>
        <mxCell id="6bCcGAt8e8jWlPKwJJBg-24" value="Shop" style="rounded=1;whiteSpace=wrap;html=1;" vertex="1" parent="1">
          <mxGeometry x="130" y="740" width="120" height="60" as="geometry" />
        </mxCell>
        <mxCell id="6bCcGAt8e8jWlPKwJJBg-25" value="GOOD" style="rounded=1;whiteSpace=wrap;html=1;" vertex="1" parent="1">
          <mxGeometry x="10" y="660" width="120" height="60" as="geometry" />
        </mxCell>
        <mxCell id="6bCcGAt8e8jWlPKwJJBg-26" value="Shop" style="rounded=1;whiteSpace=wrap;html=1;" vertex="1" parent="1">
          <mxGeometry x="690" y="800" width="120" height="60" as="geometry" />
        </mxCell>
        <mxCell id="6bCcGAt8e8jWlPKwJJBg-27" value="" style="rounded=1;whiteSpace=wrap;html=1;" vertex="1" parent="1">
          <mxGeometry x="290" y="800" width="120" height="60" as="geometry" />
        </mxCell>
        <mxCell id="6bCcGAt8e8jWlPKwJJBg-28" value="" style="endArrow=none;html=1;rounded=0;" edge="1" parent="1" target="6bCcGAt8e8jWlPKwJJBg-22">
          <mxGeometry width="50" height="50" relative="1" as="geometry">
            <mxPoint x="400" y="670" as="sourcePoint" />
            <mxPoint x="430" y="730" as="targetPoint" />
          </mxGeometry>
        </mxCell>
        <mxCell id="6bCcGAt8e8jWlPKwJJBg-29" value="" style="endArrow=none;html=1;rounded=0;entryX=0;entryY=0;entryDx=0;entryDy=0;" edge="1" parent="1" target="6bCcGAt8e8jWlPKwJJBg-6">
          <mxGeometry width="50" height="50" relative="1" as="geometry">
            <mxPoint x="432.5" y="460" as="sourcePoint" />
            <mxPoint x="482.5" y="410" as="targetPoint" />
          </mxGeometry>
        </mxCell>
        <mxCell id="6bCcGAt8e8jWlPKwJJBg-30" value="" style="endArrow=none;html=1;rounded=0;" edge="1" parent="1">
          <mxGeometry width="50" height="50" relative="1" as="geometry">
            <mxPoint x="530" y="440" as="sourcePoint" />
            <mxPoint x="430" y="400" as="targetPoint" />
          </mxGeometry>
        </mxCell>
        <mxCell id="6bCcGAt8e8jWlPKwJJBg-31" value="" style="endArrow=classic;html=1;rounded=0;entryX=0.5;entryY=0;entryDx=0;entryDy=0;exitX=0.5;exitY=1;exitDx=0;exitDy=0;" edge="1" parent="1" source="6bCcGAt8e8jWlPKwJJBg-1" target="6bCcGAt8e8jWlPKwJJBg-7">
          <mxGeometry width="50" height="50" relative="1" as="geometry">
            <mxPoint x="340" y="450" as="sourcePoint" />
            <mxPoint x="390" y="400" as="targetPoint" />
          </mxGeometry>
        </mxCell>
        <mxCell id="6bCcGAt8e8jWlPKwJJBg-32" value="" style="endArrow=none;html=1;rounded=0;entryX=0;entryY=0.5;entryDx=0;entryDy=0;exitX=1;exitY=0.5;exitDx=0;exitDy=0;" edge="1" parent="1" source="6bCcGAt8e8jWlPKwJJBg-1" target="6bCcGAt8e8jWlPKwJJBg-5">
          <mxGeometry width="50" height="50" relative="1" as="geometry">
            <mxPoint x="430" y="390" as="sourcePoint" />
            <mxPoint x="480" y="340" as="targetPoint" />
          </mxGeometry>
        </mxCell>
        <mxCell id="6bCcGAt8e8jWlPKwJJBg-33" value="" style="endArrow=classic;html=1;rounded=0;entryX=0;entryY=0;entryDx=0;entryDy=0;exitX=1;exitY=0.75;exitDx=0;exitDy=0;" edge="1" parent="1" source="6bCcGAt8e8jWlPKwJJBg-22" target="6bCcGAt8e8jWlPKwJJBg-26">
          <mxGeometry width="50" height="50" relative="1" as="geometry">
            <mxPoint x="600" y="800" as="sourcePoint" />
            <mxPoint x="650" y="750" as="targetPoint" />
          </mxGeometry>
        </mxCell>
        <mxCell id="6bCcGAt8e8jWlPKwJJBg-34" value="" style="endArrow=none;html=1;rounded=0;entryX=0.5;entryY=1;entryDx=0;entryDy=0;exitX=0;exitY=0.5;exitDx=0;exitDy=0;" edge="1" parent="1" source="6bCcGAt8e8jWlPKwJJBg-24" target="6bCcGAt8e8jWlPKwJJBg-25">
          <mxGeometry width="50" height="50" relative="1" as="geometry">
            <mxPoint x="40" y="830" as="sourcePoint" />
            <mxPoint x="90" y="780" as="targetPoint" />
          </mxGeometry>
        </mxCell>
        <mxCell id="6bCcGAt8e8jWlPKwJJBg-35" value="" style="endArrow=none;html=1;rounded=0;entryX=0;entryY=1;entryDx=0;entryDy=0;exitX=0.5;exitY=0;exitDx=0;exitDy=0;" edge="1" parent="1" source="6bCcGAt8e8jWlPKwJJBg-25" target="6bCcGAt8e8jWlPKwJJBg-15">
          <mxGeometry width="50" height="50" relative="1" as="geometry">
            <mxPoint x="30" y="640" as="sourcePoint" />
            <mxPoint x="80" y="590" as="targetPoint" />
          </mxGeometry>
        </mxCell>
        <mxCell id="6bCcGAt8e8jWlPKwJJBg-36" value="" style="endArrow=none;html=1;rounded=0;entryX=0;entryY=0.5;entryDx=0;entryDy=0;exitX=1;exitY=0.5;exitDx=0;exitDy=0;" edge="1" parent="1" source="6bCcGAt8e8jWlPKwJJBg-16" target="6bCcGAt8e8jWlPKwJJBg-17">
          <mxGeometry width="50" height="50" relative="1" as="geometry">
            <mxPoint x="260" y="530" as="sourcePoint" />
            <mxPoint x="310" y="480" as="targetPoint" />
          </mxGeometry>
        </mxCell>
        <mxCell id="6bCcGAt8e8jWlPKwJJBg-37" value="" style="endArrow=none;html=1;rounded=0;entryX=0;entryY=0.5;entryDx=0;entryDy=0;exitX=1;exitY=0.5;exitDx=0;exitDy=0;" edge="1" parent="1" source="6bCcGAt8e8jWlPKwJJBg-15" target="6bCcGAt8e8jWlPKwJJBg-7">
          <mxGeometry width="50" height="50" relative="1" as="geometry">
            <mxPoint x="250" y="530" as="sourcePoint" />
            <mxPoint x="300" y="480" as="targetPoint" />
          </mxGeometry>
        </mxCell>
        <mxCell id="6bCcGAt8e8jWlPKwJJBg-38" value="" style="endArrow=none;html=1;rounded=0;entryX=0.45;entryY=1;entryDx=0;entryDy=0;entryPerimeter=0;exitX=0.5;exitY=0;exitDx=0;exitDy=0;" edge="1" parent="1" source="6bCcGAt8e8jWlPKwJJBg-17" target="6bCcGAt8e8jWlPKwJJBg-7">
          <mxGeometry width="50" height="50" relative="1" as="geometry">
            <mxPoint x="280" y="570" as="sourcePoint" />
            <mxPoint x="330" y="520" as="targetPoint" />
          </mxGeometry>
        </mxCell>
        <mxCell id="6bCcGAt8e8jWlPKwJJBg-39" value="" style="endArrow=none;html=1;rounded=0;entryX=0.5;entryY=1;entryDx=0;entryDy=0;exitX=1;exitY=0.5;exitDx=0;exitDy=0;" edge="1" parent="1" source="6bCcGAt8e8jWlPKwJJBg-23" target="6bCcGAt8e8jWlPKwJJBg-19">
          <mxGeometry width="50" height="50" relative="1" as="geometry">
            <mxPoint x="770" y="780" as="sourcePoint" />
            <mxPoint x="820" y="730" as="targetPoint" />
          </mxGeometry>
        </mxCell>
        <mxCell id="6bCcGAt8e8jWlPKwJJBg-40" value="" style="endArrow=none;html=1;rounded=0;entryX=0.017;entryY=0.883;entryDx=0;entryDy=0;entryPerimeter=0;exitX=1;exitY=0;exitDx=0;exitDy=0;" edge="1" parent="1" source="6bCcGAt8e8jWlPKwJJBg-22" target="6bCcGAt8e8jWlPKwJJBg-23">
          <mxGeometry width="50" height="50" relative="1" as="geometry">
            <mxPoint x="530" y="720" as="sourcePoint" />
            <mxPoint x="580" y="670" as="targetPoint" />
          </mxGeometry>
        </mxCell>
        <mxCell id="6bCcGAt8e8jWlPKwJJBg-41" value="" style="endArrow=classic;html=1;rounded=0;exitX=0;exitY=0.5;exitDx=0;exitDy=0;entryX=1;entryY=0.5;entryDx=0;entryDy=0;" edge="1" parent="1" source="6bCcGAt8e8jWlPKwJJBg-19" target="6bCcGAt8e8jWlPKwJJBg-18">
          <mxGeometry width="50" height="50" relative="1" as="geometry">
            <mxPoint x="630" y="580" as="sourcePoint" />
            <mxPoint x="650" y="550" as="targetPoint" />
            <Array as="points">
              <mxPoint x="660" y="590" />
            </Array>
          </mxGeometry>
        </mxCell>
        <mxCell id="6bCcGAt8e8jWlPKwJJBg-42" value="" style="endArrow=classic;startArrow=classic;html=1;rounded=0;entryX=0;entryY=1;entryDx=0;entryDy=0;exitX=1;exitY=0.5;exitDx=0;exitDy=0;" edge="1" parent="1" source="6bCcGAt8e8jWlPKwJJBg-5" target="6bCcGAt8e8jWlPKwJJBg-9">
          <mxGeometry width="50" height="50" relative="1" as="geometry">
            <mxPoint x="630" y="320" as="sourcePoint" />
            <mxPoint x="680" y="270" as="targetPoint" />
          </mxGeometry>
        </mxCell>
        <mxCell id="6bCcGAt8e8jWlPKwJJBg-43" value="" style="endArrow=classic;html=1;rounded=0;entryX=0;entryY=1;entryDx=0;entryDy=0;exitX=1;exitY=0.5;exitDx=0;exitDy=0;" edge="1" parent="1" source="6bCcGAt8e8jWlPKwJJBg-2" target="6bCcGAt8e8jWlPKwJJBg-8">
          <mxGeometry width="50" height="50" relative="1" as="geometry">
            <mxPoint x="630" y="280" as="sourcePoint" />
            <mxPoint x="680" y="230" as="targetPoint" />
          </mxGeometry>
        </mxCell>
        <mxCell id="6bCcGAt8e8jWlPKwJJBg-44" value="" style="endArrow=none;html=1;rounded=0;entryX=0.5;entryY=1;entryDx=0;entryDy=0;exitX=0.417;exitY=0;exitDx=0;exitDy=0;exitPerimeter=0;" edge="1" parent="1" source="6bCcGAt8e8jWlPKwJJBg-9" target="6bCcGAt8e8jWlPKwJJBg-8">
          <mxGeometry width="50" height="50" relative="1" as="geometry">
            <mxPoint x="650" y="330" as="sourcePoint" />
            <mxPoint x="700" y="280" as="targetPoint" />
          </mxGeometry>
        </mxCell>
        <mxCell id="6bCcGAt8e8jWlPKwJJBg-45" value="" style="endArrow=classic;html=1;rounded=0;entryX=0.567;entryY=1.083;entryDx=0;entryDy=0;entryPerimeter=0;exitX=0.5;exitY=0;exitDx=0;exitDy=0;" edge="1" parent="1" source="6bCcGAt8e8jWlPKwJJBg-1" target="6bCcGAt8e8jWlPKwJJBg-12">
          <mxGeometry width="50" height="50" relative="1" as="geometry">
            <mxPoint x="390" y="310" as="sourcePoint" />
            <mxPoint x="440" y="260" as="targetPoint" />
          </mxGeometry>
        </mxCell>
        <mxCell id="6bCcGAt8e8jWlPKwJJBg-46" value="" style="endArrow=none;html=1;rounded=0;entryX=0;entryY=0.5;entryDx=0;entryDy=0;exitX=1;exitY=0.5;exitDx=0;exitDy=0;" edge="1" parent="1" source="6bCcGAt8e8jWlPKwJJBg-3" target="6bCcGAt8e8jWlPKwJJBg-2">
          <mxGeometry width="50" height="50" relative="1" as="geometry">
            <mxPoint x="380" y="300" as="sourcePoint" />
            <mxPoint x="430" y="250" as="targetPoint" />
          </mxGeometry>
        </mxCell>
        <mxCell id="6bCcGAt8e8jWlPKwJJBg-47" value="" style="endArrow=classic;startArrow=classic;html=1;rounded=0;entryX=0.5;entryY=1;entryDx=0;entryDy=0;exitX=0;exitY=0;exitDx=0;exitDy=0;" edge="1" parent="1" source="6bCcGAt8e8jWlPKwJJBg-1" target="6bCcGAt8e8jWlPKwJJBg-3">
          <mxGeometry width="50" height="50" relative="1" as="geometry">
            <mxPoint x="220" y="370" as="sourcePoint" />
            <mxPoint x="270" y="320" as="targetPoint" />
          </mxGeometry>
        </mxCell>
        <mxCell id="6bCcGAt8e8jWlPKwJJBg-48" value="" style="endArrow=none;html=1;rounded=0;" edge="1" parent="1">
          <mxGeometry width="50" height="50" relative="1" as="geometry">
            <mxPoint x="420" y="340" as="sourcePoint" />
            <mxPoint x="470" y="290" as="targetPoint" />
          </mxGeometry>
        </mxCell>
        <mxCell id="6bCcGAt8e8jWlPKwJJBg-49" value="" style="endArrow=none;html=1;rounded=0;entryX=0.25;entryY=1;entryDx=0;entryDy=0;exitX=0.583;exitY=0;exitDx=0;exitDy=0;exitPerimeter=0;" edge="1" parent="1" source="6bCcGAt8e8jWlPKwJJBg-18" target="6bCcGAt8e8jWlPKwJJBg-6">
          <mxGeometry width="50" height="50" relative="1" as="geometry">
            <mxPoint x="450" y="570" as="sourcePoint" />
            <mxPoint x="500" y="520" as="targetPoint" />
          </mxGeometry>
        </mxCell>
        <mxCell id="6bCcGAt8e8jWlPKwJJBg-50" value="" style="endArrow=classic;html=1;rounded=0;entryX=0;entryY=0.5;entryDx=0;entryDy=0;exitX=1;exitY=0.5;exitDx=0;exitDy=0;" edge="1" parent="1" source="6bCcGAt8e8jWlPKwJJBg-6" target="6bCcGAt8e8jWlPKwJJBg-10">
          <mxGeometry width="50" height="50" relative="1" as="geometry">
            <mxPoint x="670" y="490" as="sourcePoint" />
            <mxPoint x="720" y="440" as="targetPoint" />
          </mxGeometry>
        </mxCell>
        <mxCell id="6bCcGAt8e8jWlPKwJJBg-51" value="" style="endArrow=none;html=1;rounded=0;exitX=0.5;exitY=0;exitDx=0;exitDy=0;" edge="1" parent="1" source="6bCcGAt8e8jWlPKwJJBg-10">
          <mxGeometry width="50" height="50" relative="1" as="geometry">
            <mxPoint x="750" y="400" as="sourcePoint" />
            <mxPoint x="800" y="350" as="targetPoint" />
          </mxGeometry>
        </mxCell>
        <mxCell id="6bCcGAt8e8jWlPKwJJBg-52" value="" style="endArrow=none;html=1;rounded=0;exitX=0.5;exitY=0;exitDx=0;exitDy=0;" edge="1" parent="1" source="6bCcGAt8e8jWlPKwJJBg-19">
          <mxGeometry width="50" height="50" relative="1" as="geometry">
            <mxPoint x="740" y="560" as="sourcePoint" />
            <mxPoint x="790" y="510" as="targetPoint" />
          </mxGeometry>
        </mxCell>
        <mxCell id="6bCcGAt8e8jWlPKwJJBg-53" value="" style="endArrow=none;html=1;rounded=0;entryX=0;entryY=0.5;entryDx=0;entryDy=0;exitX=1;exitY=0.5;exitDx=0;exitDy=0;" edge="1" parent="1" source="6bCcGAt8e8jWlPKwJJBg-24" target="6bCcGAt8e8jWlPKwJJBg-27">
          <mxGeometry width="50" height="50" relative="1" as="geometry">
            <mxPoint x="260" y="820" as="sourcePoint" />
            <mxPoint x="310" y="770" as="targetPoint" />
          </mxGeometry>
        </mxCell>
        <mxCell id="6bCcGAt8e8jWlPKwJJBg-54" value="" style="endArrow=none;html=1;rounded=0;entryX=0;entryY=0.5;entryDx=0;entryDy=0;exitX=1;exitY=0.5;exitDx=0;exitDy=0;" edge="1" parent="1" source="6bCcGAt8e8jWlPKwJJBg-24" target="6bCcGAt8e8jWlPKwJJBg-22">
          <mxGeometry width="50" height="50" relative="1" as="geometry">
            <mxPoint x="350" y="810" as="sourcePoint" />
            <mxPoint x="400" y="760" as="targetPoint" />
          </mxGeometry>
        </mxCell>
        <mxCell id="6bCcGAt8e8jWlPKwJJBg-55" value="" style="endArrow=none;html=1;rounded=0;exitX=1;exitY=0;exitDx=0;exitDy=0;" edge="1" parent="1" source="6bCcGAt8e8jWlPKwJJBg-27">
          <mxGeometry width="50" height="50" relative="1" as="geometry">
            <mxPoint x="390" y="840" as="sourcePoint" />
            <mxPoint x="440" y="790" as="targetPoint" />
          </mxGeometry>
        </mxCell>
        <mxCell id="6bCcGAt8e8jWlPKwJJBg-56" value="" style="endArrow=none;html=1;rounded=0;exitX=1.017;exitY=0.633;exitDx=0;exitDy=0;exitPerimeter=0;" edge="1" parent="1" source="6bCcGAt8e8jWlPKwJJBg-4">
          <mxGeometry width="50" height="50" relative="1" as="geometry">
            <mxPoint x="270" y="420" as="sourcePoint" />
            <mxPoint x="320" y="370" as="targetPoint" />
          </mxGeometry>
        </mxCell>
        <mxCell id="6bCcGAt8e8jWlPKwJJBg-57" value="" style="endArrow=none;html=1;rounded=0;exitX=0.5;exitY=0;exitDx=0;exitDy=0;" edge="1" parent="1" source="6bCcGAt8e8jWlPKwJJBg-15">
          <mxGeometry width="50" height="50" relative="1" as="geometry">
            <mxPoint x="110" y="490" as="sourcePoint" />
            <mxPoint x="160" y="440" as="targetPoint" />
          </mxGeometry>
        </mxCell>
        <mxCell id="6bCcGAt8e8jWlPKwJJBg-58" value="" style="endArrow=none;html=1;rounded=0;exitX=0.5;exitY=0;exitDx=0;exitDy=0;" edge="1" parent="1" source="6bCcGAt8e8jWlPKwJJBg-4">
          <mxGeometry width="50" height="50" relative="1" as="geometry">
            <mxPoint x="110" y="350" as="sourcePoint" />
            <mxPoint x="160" y="300" as="targetPoint" />
          </mxGeometry>
        </mxCell>
        <mxCell id="6bCcGAt8e8jWlPKwJJBg-59" value="" style="endArrow=classic;html=1;rounded=0;exitX=1;exitY=0;exitDx=0;exitDy=0;" edge="1" parent="1" source="6bCcGAt8e8jWlPKwJJBg-14">
          <mxGeometry width="50" height="50" relative="1" as="geometry">
            <mxPoint x="250" y="250" as="sourcePoint" />
            <mxPoint x="300" y="200" as="targetPoint" />
          </mxGeometry>
        </mxCell>
        <mxCell id="6bCcGAt8e8jWlPKwJJBg-60" value="" style="endArrow=classic;html=1;rounded=0;exitX=1;exitY=0;exitDx=0;exitDy=0;" edge="1" parent="1" source="6bCcGAt8e8jWlPKwJJBg-12">
          <mxGeometry width="50" height="50" relative="1" as="geometry">
            <mxPoint x="420" y="160" as="sourcePoint" />
            <mxPoint x="470" y="110" as="targetPoint" />
          </mxGeometry>
        </mxCell>
        <mxCell id="6bCcGAt8e8jWlPKwJJBg-61" value="" style="endArrow=none;html=1;rounded=0;exitX=1;exitY=0.617;exitDx=0;exitDy=0;exitPerimeter=0;" edge="1" parent="1" source="6bCcGAt8e8jWlPKwJJBg-13">
          <mxGeometry width="50" height="50" relative="1" as="geometry">
            <mxPoint x="250" y="210" as="sourcePoint" />
            <mxPoint x="300" y="160" as="targetPoint" />
          </mxGeometry>
        </mxCell>
        <mxCell id="6bCcGAt8e8jWlPKwJJBg-62" value="" style="endArrow=none;html=1;rounded=0;entryX=0.5;entryY=1;entryDx=0;entryDy=0;exitX=0.5;exitY=0;exitDx=0;exitDy=0;" edge="1" parent="1" source="6bCcGAt8e8jWlPKwJJBg-14" target="6bCcGAt8e8jWlPKwJJBg-13">
          <mxGeometry width="50" height="50" relative="1" as="geometry">
            <mxPoint x="-10" y="290" as="sourcePoint" />
            <mxPoint x="40" y="240" as="targetPoint" />
          </mxGeometry>
        </mxCell>
        <mxCell id="6bCcGAt8e8jWlPKwJJBg-63" value="" style="endArrow=none;html=1;rounded=0;entryX=0;entryY=0.5;entryDx=0;entryDy=0;exitX=1;exitY=0.5;exitDx=0;exitDy=0;" edge="1" parent="1" source="6bCcGAt8e8jWlPKwJJBg-12" target="6bCcGAt8e8jWlPKwJJBg-11">
          <mxGeometry width="50" height="50" relative="1" as="geometry">
            <mxPoint x="440" y="230" as="sourcePoint" />
            <mxPoint x="490" y="180" as="targetPoint" />
          </mxGeometry>
        </mxCell>
        <mxCell id="6bCcGAt8e8jWlPKwJJBg-64" value="" style="endArrow=none;html=1;rounded=0;entryX=1;entryY=1;entryDx=0;entryDy=0;" edge="1" parent="1" target="6bCcGAt8e8jWlPKwJJBg-12">
          <mxGeometry width="50" height="50" relative="1" as="geometry">
            <mxPoint x="460" y="240" as="sourcePoint" />
            <mxPoint x="510" y="190" as="targetPoint" />
          </mxGeometry>
        </mxCell>
        <mxCell id="6bCcGAt8e8jWlPKwJJBg-65" value="" style="endArrow=classic;html=1;rounded=0;entryX=1.042;entryY=0.633;entryDx=0;entryDy=0;entryPerimeter=0;exitX=0;exitY=0.5;exitDx=0;exitDy=0;" edge="1" parent="1" source="6bCcGAt8e8jWlPKwJJBg-8" target="6bCcGAt8e8jWlPKwJJBg-11">
          <mxGeometry width="50" height="50" relative="1" as="geometry">
            <mxPoint x="660" y="210" as="sourcePoint" />
            <mxPoint x="710" y="160" as="targetPoint" />
          </mxGeometry>
        </mxCell>
        <mxCell id="6bCcGAt8e8jWlPKwJJBg-66" value="" style="endArrow=none;html=1;rounded=0;exitX=0.658;exitY=-0.083;exitDx=0;exitDy=0;exitPerimeter=0;" edge="1" parent="1" source="6bCcGAt8e8jWlPKwJJBg-2">
          <mxGeometry width="50" height="50" relative="1" as="geometry">
            <mxPoint x="540" y="250" as="sourcePoint" />
            <mxPoint x="590" y="200" as="targetPoint" />
          </mxGeometry>
        </mxCell>
        <mxCell id="6bCcGAt8e8jWlPKwJJBg-68" value="" style="curved=1;endArrow=classic;html=1;rounded=0;entryX=0;entryY=0.75;entryDx=0;entryDy=0;" edge="1" parent="1" target="6bCcGAt8e8jWlPKwJJBg-18">
          <mxGeometry width="50" height="50" relative="1" as="geometry">
            <mxPoint x="490" y="730" as="sourcePoint" />
            <mxPoint x="540" y="680" as="targetPoint" />
            <Array as="points">
              <mxPoint x="520" y="700" />
              <mxPoint x="540" y="730" />
              <mxPoint x="440" y="660" />
            </Array>
          </mxGeometry>
        </mxCell>
        <mxCell id="6bCcGAt8e8jWlPKwJJBg-69" value="" style="endArrow=none;html=1;rounded=0;entryX=0;entryY=0.5;entryDx=0;entryDy=0;exitX=1;exitY=0.5;exitDx=0;exitDy=0;" edge="1" parent="1" source="6bCcGAt8e8jWlPKwJJBg-17" target="6bCcGAt8e8jWlPKwJJBg-18">
          <mxGeometry width="50" height="50" relative="1" as="geometry">
            <mxPoint x="400" y="630" as="sourcePoint" />
            <mxPoint x="450" y="580" as="targetPoint" />
          </mxGeometry>
        </mxCell>
        <mxCell id="6bCcGAt8e8jWlPKwJJBg-70" value="" style="curved=1;endArrow=classic;html=1;rounded=0;exitX=0.25;exitY=0;exitDx=0;exitDy=0;entryX=1;entryY=0.75;entryDx=0;entryDy=0;" edge="1" parent="1" source="6bCcGAt8e8jWlPKwJJBg-10" target="6bCcGAt8e8jWlPKwJJBg-2">
          <mxGeometry width="50" height="50" relative="1" as="geometry">
            <mxPoint x="630" y="390" as="sourcePoint" />
            <mxPoint x="680" y="340" as="targetPoint" />
            <Array as="points">
              <mxPoint x="720" y="370" />
              <mxPoint x="620" y="340" />
            </Array>
          </mxGeometry>
        </mxCell>
        <mxCell id="6bCcGAt8e8jWlPKwJJBg-71" value="" style="endArrow=classic;html=1;rounded=0;fillColor=#f8cecc;strokeColor=#b85450;" edge="1" parent="1">
          <mxGeometry width="50" height="50" relative="1" as="geometry">
            <mxPoint x="950" y="830" as="sourcePoint" />
            <mxPoint x="820" y="830" as="targetPoint" />
          </mxGeometry>
        </mxCell>
        <mxCell id="6bCcGAt8e8jWlPKwJJBg-72" value="" style="endArrow=classic;html=1;rounded=0;exitX=0;exitY=0;exitDx=0;exitDy=0;fillColor=#f8cecc;strokeColor=#b85450;" edge="1" parent="1" source="6bCcGAt8e8jWlPKwJJBg-13">
          <mxGeometry width="50" height="50" relative="1" as="geometry">
            <mxPoint x="10" y="130" as="sourcePoint" />
            <mxPoint x="60" y="80" as="targetPoint" />
          </mxGeometry>
        </mxCell>
        <mxCell id="6bCcGAt8e8jWlPKwJJBg-73" value="" style="endArrow=classic;startArrow=classic;html=1;rounded=0;exitX=1;exitY=1;exitDx=0;exitDy=0;fillColor=#fff2cc;strokeColor=#d6b656;" edge="1" parent="1" source="6bCcGAt8e8jWlPKwJJBg-10">
          <mxGeometry width="50" height="50" relative="1" as="geometry">
            <mxPoint x="870" y="720" as="sourcePoint" />
            <mxPoint x="980" y="700" as="targetPoint" />
            <Array as="points">
              <mxPoint x="880" y="570" />
            </Array>
          </mxGeometry>
        </mxCell>
        <mxCell id="6bCcGAt8e8jWlPKwJJBg-74" value="" style="endArrow=classic;startArrow=classic;html=1;rounded=0;exitX=1;exitY=1;exitDx=0;exitDy=0;fillColor=#fff2cc;strokeColor=#d6b656;" edge="1" parent="1">
          <mxGeometry width="50" height="50" relative="1" as="geometry">
            <mxPoint x="-40" y="200" as="sourcePoint" />
            <mxPoint x="100" y="390" as="targetPoint" />
            <Array as="points">
              <mxPoint y="260" />
            </Array>
          </mxGeometry>
        </mxCell>
        <mxCell id="6bCcGAt8e8jWlPKwJJBg-75" value="" style="endArrow=classic;html=1;rounded=0;fillColor=#e1d5e7;strokeColor=#9673a6;" edge="1" parent="1">
          <mxGeometry width="50" height="50" relative="1" as="geometry">
            <mxPoint x="840" y="190" as="sourcePoint" />
            <mxPoint x="890" y="140" as="targetPoint" />
          </mxGeometry>
        </mxCell>
        <mxCell id="6bCcGAt8e8jWlPKwJJBg-76" value="" style="endArrow=classic;html=1;rounded=0;fillColor=#e1d5e7;strokeColor=#9673a6;" edge="1" parent="1">
          <mxGeometry width="50" height="50" relative="1" as="geometry">
            <mxPoint x="-40" y="760" as="sourcePoint" />
            <mxPoint x="10" y="710" as="targetPoint" />
          </mxGeometry>
        </mxCell>
        <mxCell id="6bCcGAt8e8jWlPKwJJBg-77" value="Zoey" style="shape=umlActor;verticalLabelPosition=bottom;verticalAlign=top;html=1;outlineConnect=0;fillColor=#e1d5e7;strokeColor=#9673a6;" vertex="1" parent="1">
          <mxGeometry x="335" y="440" width="30" height="60" as="geometry" />
        </mxCell>
        <mxCell id="6bCcGAt8e8jWlPKwJJBg-78" value="Monica" style="shape=umlActor;verticalLabelPosition=bottom;verticalAlign=top;html=1;outlineConnect=0;fillColor=#f8cecc;strokeColor=#b85450;" vertex="1" parent="1">
          <mxGeometry x="390" y="440" width="30" height="60" as="geometry" />
        </mxCell>
        <mxCell id="6bCcGAt8e8jWlPKwJJBg-79" value="Goblin" style="shape=umlActor;verticalLabelPosition=bottom;verticalAlign=top;html=1;outlineConnect=0;" vertex="1" parent="1">
          <mxGeometry x="320" y="1010" width="30" height="60" as="geometry" />
        </mxCell>
        <mxCell id="6bCcGAt8e8jWlPKwJJBg-81" value="Gold - Monica - Zoey" style="text;html=1;strokeColor=none;fillColor=none;align=center;verticalAlign=middle;whiteSpace=wrap;rounded=0;" vertex="1" parent="1">
          <mxGeometry x="85" y="880" width="270" height="30" as="geometry" />
        </mxCell>
        <mxCell id="6bCcGAt8e8jWlPKwJJBg-82" value="0" style="text;html=1;strokeColor=none;fillColor=none;align=center;verticalAlign=middle;whiteSpace=wrap;rounded=0;" vertex="1" parent="1">
          <mxGeometry x="190" y="913" width="60" height="30" as="geometry" />
        </mxCell>
        <mxCell id="6bCcGAt8e8jWlPKwJJBg-83" value="0" style="text;html=1;strokeColor=none;fillColor=none;align=center;verticalAlign=middle;whiteSpace=wrap;rounded=0;" vertex="1" parent="1">
          <mxGeometry x="230" y="913" width="60" height="30" as="geometry" />
        </mxCell>
      </root>
    </mxGraphModel>
  </diagram>
</mxfile>
